/* XPM */
static char *_1fa882a7d24426ab621a9133799f26bnY9X6Nl2B7fWks1A[] = {
/* columns rows colors chars-per-pixel */
"50 50 90 1 ",
"  c None",
". c #09270F",
"X c #083712",
"o c #1C3A24",
"O c #402C1A",
"+ c #084014",
"@ c #084015",
"# c #094015",
"$ c #094115",
"% c #0A4015",
"& c #0A4115",
"* c #094116",
"= c #0A4116",
"- c #0E4219",
"; c #0E4319",
": c #0F431A",
"> c #0F441A",
", c #0B4B18",
"< c #0A4C18",
"1 c #0B4C19",
"2 c #11441B",
"3 c #17431F",
"4 c #11441C",
"5 c #12441C",
"6 c #0F5C1E",
"7 c #0F5D1F",
"8 c #0F5E1F",
"9 c #0F5F1F",
"0 c #2F451B",
"q c #30451C",
"w c #1A4422",
"e c #1B4924",
"r c #105E20",
"t c #26472C",
"y c #0F6D24",
"u c #0F6D25",
"i c #0F6E24",
"p c #0F6E25",
"a c #106E25",
"s c #106E26",
"d c #1F602E",
"f c #117E29",
"g c #127E29",
"h c #336326",
"j c #7A4F28",
"k c #7A4F29",
"l c #7A5029",
"z c #79512B",
"x c #7A502B",
"c c #7A512B",
"v c #466F2C",
"b c #476F2D",
"n c #966131",
"m c #956132",
"M c #966335",
"N c #986332",
"B c #9F6735",
"V c #A06734",
"C c #AF723A",
"Z c #AE723B",
"A c #AD723D",
"S c #B0723A",
"D c #14832B",
"F c #15852C",
"G c #15892D",
"H c #168A2E",
"J c #15902F",
"K c #14912F",
"L c #15912F",
"P c #16902F",
"I c #16912F",
"U c #1BA839",
"Y c #1BAC39",
"T c #23BE43",
"R c #3CBC56",
"E c #1EC240",
"W c #1EC441",
"Q c #1FC742",
"! c #24C345",
"~ c #CF63B6",
"^ c #DC68C1",
"/ c #DC68C2",
"( c #DE6BC2",
") c #DE6BC4",
"_ c #E36BC7",
"` c #E66CC9",
"' c #F072D2",
"] c #F778D9",
"[ c #FE78DF",
"{ c #FF78DF",
/* pixels */
"                        IIKK                      ",
"                      d1IIfD.o                    ",
"                      IIIKpp==                    ",
"                      JJKIppX=                    ",
"                      JJIJpp**                    ",
"                      JJIJps**                    ",
"                      JJIKii=&                    ",
"                      JJKIii=*                    ",
"                      IKIKip*$                    ",
"                      KI<<ii$$                    ",
"                      IK=+ii==                    ",
"                      IK$$iiX=    `_              ",
"                      KK=+pp**    {'              ",
"                      KK+=pp**  !T5t](            ",
"                      KK$$pp=*  QE=w{_            ",
"                      KKX$pi$*  QW=5              ",
"                      IIX&ip**  QEX5              ",
"                      IK=*ii=Xry88*5              ",
"                      II==iiX=r688=2              ",
"              /{      IK==ii*==X=-                ",
"              ^{      IK*Xii*===%2                ",
"            ~{RQ,%    KI**ii=*                    ",
"            ~{RQ,%    IH*=ii==                    ",
"              YQ,%    ss$=ii==                    ",
"              YQ1=    ip$$pp$=                    ",
"              YQHFFFFFipX$pp$=                    ",
"              UEHDFFFFpp*$pp==                    ",
"              X===**X=pp*=pp==                    ",
"              e>-2->>>ps==ii$*                    ",
"                      ii==siX*                    ",
"                      sp$$ii**                    ",
"                      spX$ii**                    ",
"                      si**sp**                    ",
"                      siX*pp**                    ",
"                      si==ppX*                    ",
"                      si$=pp==                    ",
"                      si$$pp$=                    ",
"                      ssX$pp$$                    ",
"                      bvqqhh00                    ",
"                  ZSSSSSlllllljjll                ",
"                  MNNNNNjjjjjjjjlz                ",
"                  zjjjjjjjjjjjjjlz                ",
"                   Ommjjjjjjjjjj                  ",
"                    ZSjjjjjjjjjl                  ",
"                    ZSjjjjjjjjjl                  ",
"                    ZSjjjjjjjjjl                  ",
"                      BVjjjjjj                    ",
"                      CSjjjjjj                    ",
"                      CSjjjjjj                    ",
"                      CSjljjjj                    "
};
