/* XPM */
static char *c5f9981ec0f84f69981aed841adca45agaLc1ZGNBriYCLCZ[] = {
/* columns rows colors chars-per-pixel */
"50 50 145 2 ",
"   c None",
".  c black",
"X  c gray1",
"o  c #040404",
"O  c #080708",
"+  c gray3",
"@  c gray4",
"#  c #0B0B0B",
"$  c gray5",
"%  c #101010",
"&  c #121213",
"*  c #131313",
"=  c #141314",
"-  c #161616",
";  c #171718",
":  c #181718",
">  c gray11",
",  c #212021",
"<  c #272627",
"1  c #2A292A",
"2  c #2C2B2D",
"3  c #2D2C2D",
"4  c #323132",
"5  c #323133",
"6  c #383738",
"7  c #393739",
"8  c #39383A",
"9  c #464446",
"0  c #4D4B4D",
"q  c #4F4D50",
"w  c #504E50",
"e  c #525052",
"r  c #535153",
"t  c #585759",
"y  c #595759",
"u  c #5C5A5C",
"i  c #5F5D5F",
"p  c #5F5D60",
"a  c #605E61",
"s  c #636164",
"d  c #646265",
"f  c #666468",
"g  c #6A686A",
"h  c #716F72",
"j  c #727073",
"k  c #747175",
"l  c #757275",
"z  c #79777A",
"x  c #7A787B",
"c  c #7C7A7D",
"v  c #7D7B7E",
"b  c #7E7C80",
"n  c #7F7D81",
"m  c #858286",
"M  c #878589",
"N  c #888589",
"B  c #8E8B8F",
"V  c #8F8C90",
"C  c #918E92",
"Z  c #949296",
"A  c #959296",
"S  c #969397",
"D  c #989599",
"F  c #99969B",
"G  c #9A979B",
"H  c #9A989B",
"J  c #9B989C",
"K  c #9C999D",
"L  c #9D9A9E",
"P  c #9E9B9F",
"I  c #9F9CA0",
"U  c #A09DA1",
"Y  c #A19EA2",
"T  c #A29FA3",
"R  c #A3A0A4",
"E  c #A4A0A5",
"W  c #A4A1A5",
"Q  c #A5A1A6",
"!  c #A5A2A6",
"~  c #A7A4A8",
"^  c #A8A5AA",
"/  c #ABA8AD",
"(  c #ACA9AD",
")  c #ACA9AE",
"_  c #ADAAAF",
"`  c #AEABAF",
"'  c #AFABB0",
"]  c #B1ADB2",
"[  c #B1ADB3",
"{  c #B2AEB3",
"}  c #B3B0B5",
"|  c #B4B1B5",
" . c #B5B1B6",
".. c #B5B2B7",
"X. c #B6B2B7",
"o. c #B6B2B8",
"O. c #B6B3B8",
"+. c #B7B3B8",
"@. c #B7B4B9",
"#. c #B8B4BA",
"$. c #B9B5BB",
"%. c #B9B6BB",
"&. c #BBB7BC",
"*. c #BCB4BD",
"=. c #BCB9BE",
"-. c #BDB9BE",
";. c #BDB9BF",
":. c #BDBABF",
">. c #BEBABF",
",. c #BEBAC0",
"<. c #BFBBC1",
"1. c #C0BCC1",
"2. c #C0BCC2",
"3. c #C1BEC3",
"4. c #C2BEC4",
"5. c #C3BFC5",
"6. c #E0AFD7",
"7. c #E3BADC",
"8. c #E5B8DD",
"9. c #FEA7EC",
"0. c #FFA6ED",
"q. c #F9AAE9",
"w. c #FAA9EA",
"e. c #EBB4E1",
"r. c #C3C0C5",
"t. c #C5C1C7",
"y. c #C6C2C7",
"u. c #C6C2C8",
"i. c #C6C3C8",
"p. c #C7C3C9",
"a. c #C7C4C9",
"s. c #C8C4C9",
"d. c #C8C4CA",
"f. c #C9C5CA",
"g. c #C9C5CB",
"h. c #C9C6CB",
"j. c #CAC6CC",
"k. c #CAC7CC",
"l. c #CBC7CC",
"z. c #CBC7CD",
"x. c #CCC8CE",
"c. c #CDC9CF",
"v. c #D1C6D1",
"b. c #D0C7D1",
"n. c #D4C4D3",
/* pixels */
"                                                                                                    ",
"                                                                                                    ",
"                                                                                                    ",
"                                                                                                    ",
"                                                                                                    ",
"                                                                                                    ",
"                                                                                                    ",
"                                                    . .                         . .                 ",
"                                                    . .                         . .                 ",
"                                              . . d x.z . .                 . $ c.4.. .             ",
"                                              . . s x.z . .                 . * c.t.. .             ",
"      . . . .                                 . . s c.=.U g . . . . . . . * U R x.4.. .             ",
"      . . . .                                 . . d x.=.U g . . . . . . . * U Q c.4.. .             ",
"  . . j.x.x.x.+ .                         . . y I O.x.c.x.,.I ( x.r.I I I Q x.c.c.x.I J . .         ",
"  . . x.x.c.c.+ .                         . . y U X.c.c.x.,.U ( c.r.U U U Q c.c.x.x.U L . .         ",
"  . . x.c.c.c.+ .                         . . h x.x.c.c.c.c.x.x.c.x.x.x.x.x.c.c.c.x.x.t.. .         ",
"  . . x.c.c.c.+ .                         . . j x.c.c.c.c.c.c.c.c.c.c.c.c.c.c.c.c.c.c.p.. .         ",
"  . . U R # +             . . . . . . . . a G O.c.c.c.c.c.c.c.c.c.c.c.c.c.c.c.c.c.c.c.x.H G . .     ",
"  . . I I o .             . . . . . . . . d U &.c.c.c.x.c.c.c.c.c.c.c.c.c.c.c.x.c.c.c.x.I P . .     ",
"  . . j.j.o .         . . Q <.I S X.2.R S O.j.x.c.c.c.n $ w c.c.c.R $ 3 c.c.c.,.$ ; c.c.j.h.. .     ",
"  . . x.c.o .         . . [ c.^ U 4.c.' U =.c.c.c.c.c.z . 9 x.c.c.U . , c.c.x.,.. + c.c.c.z.. .     ",
"  . . R R X . . . . . ~ &.j.c.^ U 4.c.' U =.c.c.c.7.w.6.&.<.c.G = 8 &.L - 1 c.x.&.*.w.w.x.z.. .     ",
"  . . I I X . . . . . &.c.c.c.~ U 4.x.( U =.x.c.c.8.0.e.c.c.c.S . 2 x.( . : c.c.c.v.0.9.x.z.. .     ",
"      - - ' [ O . Q [ j.c.c.c.h.p.x.c.h.a.z.c.c.c.b.n.v.c.c.z.p.[ O.c.h.[ } c.c.c.c.n.n.c.z.. .     ",
"      . . j.x.+ . 2.c.c.c.c.c.c.c.c.c.c.c.c.c.c.c.c.c.c.c.c.c.c.c.c.c.c.c.c.c.c.c.c.c.c.x.j.. .     ",
"      . . j.c.+ . 2.c.c.c.c.c.c.c.c.c.c.c.c.c.c.c.c.c.c.c.c.c.c.c.c.c.c.c.c.c.c.c.c.c.c.c.x.. .     ",
"      . . h.c.+ . 2.c.c.c.c.c.c.c.c.c.c.c.c.c.c.c.c.c.c.c.c.c.c.c.c.c.c.c.c.c.c.c.c.c.c.c.x.. .     ",
"          5 5 S J j.c.c.c.c.c.c.c.c.c.c.c.c.c.c.c.c.c.c.c.c.c.c.c.c.c.c.c.c.c.c.c.c.c.x.x.x.. .     ",
"          . . t.c.c.c.c.c.c.c.c.c.c.c.c.c.c.c.c.c.c.c.c.c.c.c.c.c.c.c.c.c.c.c.c.c.c.c.c.c.x.. .     ",
"          . . t.c.c.c.c.c.c.c.c.c.c.c.c.c.c.c.c.c.c.c.c.c.c.c.c.c.c.c.c.c.c.c.c.c.c.c.x.( ( . .     ",
"          . . t.c.c.c.c.c.c.c.c.c.c.c.c.c.c.c.c.c.c.c.c.c.c.c.c.c.c.c.c.c.c.c.c.c.c.c.x.U I . .     ",
"          . . t.c.c.c.c.c.c.c.c.c.c.c.c.c.c.c.c.c.c.c.c.c.c.c.c.c.c.c.c.c.c.c.c.c.c.c.x.U L . .     ",
"          . . p.x.c.c.c.c.c.c.c.c.c.c.c.c.c.c.c.c.c.c.c.c.c.c.c.c.c.c.c.c.c.c.c.c.c.c.x.R P . .     ",
"          . . ( X.j.c.c.c.c.c.c.c.c.c.c.c.c.c.c.c.c.c.c.c.c.c.c.c.c.c.c.c.c.c.c.c.c.x.x.P P . .     ",
"          . . G I j.x.x.c.c.c.c.c.c.c.x.c.c.c.c.c.c.c.c.c.c.c.c.c.c.c.c.c.c.c.c.c.c.c.x.U P . .     ",
"          . . w r [ #.z.c.c.c.c.c.c.c.x.c.c.c.c.c.c.c.c.c.c.c.c.c.c.c.c.c.c.c.c.c.x.#.X.r r . .     ",
"              . . S U h.c.x.x.x.x.x.x.x.c.x.x.x.c.c.c.c.c.c.x.x.c.c.x.x.c.c.x.c.x.x.I L . .         ",
"              . . y i [ =.z.x.2.=.#.=.h.c.2.=.p.c.c.c.c.x.h.&.2.x.j.&.&.=.>.x.x.=.#.u u . .         ",
"                  . . C U h.x.^ U U U 2.c.[ U #.c.x.c.c.x.<.U ( c.t.U U U Q x.h.U G . .             ",
"                  . . a g 2.x.v g g g ' x.C g x N N N N N v g m c.#.g g g l x.a.g s . .             ",
"                      . . [ x.< . . . B x.0 . . . . . . . . . 7 c.U . . . ; c.=.. .                 ",
"                      . . n S > . . . f S 8 . . . . . . . . . 1 S l . . . * S N . .                 ",
"                      . . . .         . . . .               . . . .         . . . .                 ",
"                      . . . .         . . . .               . . . .         . . . .                 ",
"                                                                                                    ",
"                                                                                                    ",
"                                                                                                    ",
"                                                                                                    ",
"                                                                                                    ",
"                                                                                                    "
};
