/* XPM */
static char *_6cc6295b88e4f78a2034c73923999924cnQyiW31ZKlDG5q[] = {
/* columns rows colors chars-per-pixel */
"50 50 205 2 ",
"   c None",
".  c #131313",
"X  c gray11",
"o  c #222222",
"O  c #2A2A2A",
"+  c #363636",
"@  c #3E3A36",
"#  c #393939",
"$  c #413F3F",
"%  c #483E34",
"&  c #7C4C1B",
"*  c #524333",
"=  c #594430",
"-  c #63492D",
";  c #6B4C2D",
":  c #714920",
">  c #7B5228",
",  c #6A4E31",
"<  c #745330",
"1  c #454545",
"2  c #4A4A4A",
"3  c #4C4847",
"4  c #514D4C",
"5  c #555555",
"6  c #5D5D5D",
"7  c #5A5450",
"8  c #655B58",
"9  c #6D615D",
"0  c #766966",
"q  c #747474",
"w  c #7F7472",
"e  c #7B7B7B",
"r  c #6B6868",
"t  c #804D19",
"y  c #955A1D",
"u  c #9B5D1E",
"i  c #9F601F",
"p  c #A2621F",
"a  c #B96F1F",
"s  c #845424",
"d  c #8D5822",
"f  c #8A5724",
"g  c #945B21",
"h  c #895C30",
"j  c #996026",
"k  c #A46421",
"l  c #AA6620",
"z  c #AE6923",
"x  c #AD6D29",
"c  c #B36C23",
"v  c #B96F23",
"b  c #B26F2B",
"n  c #AE702D",
"m  c #BA7124",
"M  c #BB752B",
"N  c #B4712E",
"B  c #A3723F",
"V  c #BE7A33",
"C  c #B57433",
"Z  c #A86D31",
"A  c #C87827",
"S  c #D37E28",
"D  c #C07D31",
"F  c #C07E3A",
"G  c #967756",
"H  c #AC7B48",
"J  c #B57E45",
"K  c #A37C54",
"L  c #82716A",
"P  c #89766F",
"I  c #897C7A",
"U  c #877A78",
"Y  c #BE803D",
"T  c #D6812A",
"R  c #DB842A",
"E  c #DC8529",
"W  c #C88236",
"Q  c #C3823A",
"!  c #CA8538",
"~  c #DC8933",
"^  c #DD8C39",
"/  c #DB8730",
"(  c #DF903C",
")  c #E1862B",
"_  c #E6892C",
"`  c #FF9831",
"'  c #FE9731",
"]  c #F6932F",
"[  c #B68756",
"{  c #BB905F",
"}  c #B9824C",
"|  c #9E8469",
" . c #91827F",
".. c #BB9A77",
"X. c #B48E67",
"o. c #BCA07E",
"O. c #C38544",
"+. c #C58749",
"@. c #C68A46",
"#. c #D38E40",
"$. c #DB9546",
"%. c #C58D51",
"&. c #CB955D",
"*. c #D19451",
"=. c #E2994B",
"-. c #E19748",
";. c #E09F5F",
":. c #EDA048",
">. c #E5A758",
",. c #FBB45C",
"<. c #F6AA50",
"1. c #CD9C64",
"2. c #CD9F6D",
"3. c #D29C64",
"4. c #C89F71",
"5. c #CBA37A",
"6. c #D2A374",
"7. c #DAAA73",
"8. c #D3A56F",
"9. c #E5A563",
"0. c #E6A968",
"q. c #FFBC65",
"w. c #F6B764",
"e. c #E3AD77",
"r. c #E9B277",
"t. c gray51",
"y. c #8A8786",
"u. c #9D8B88",
"i. c #929191",
"p. c gray61",
"a. c #A28E8B",
"s. c #A3908E",
"d. c #AE9995",
"f. c #B59F9C",
"g. c #BEA384",
"h. c #BEA58D",
"j. c #B5A08B",
"k. c #B9A29E",
"l. c #B7A694",
"z. c #BDA5A1",
"x. c #BEB3A8",
"c. c #BFBAB5",
"v. c #BFBFBF",
"b. c #B6B6B6",
"n. c #A9A9A9",
"m. c #C8A98B",
"M. c #D3AE89",
"N. c #DAB48D",
"B. c #D0B08F",
"V. c #C1AE9C",
"C. c #CAB198",
"Z. c #D9B694",
"A. c #EEBB86",
"S. c #E9B683",
"D. c #EABE92",
"F. c #E0BF9D",
"G. c #C2A9A5",
"H. c #C4ADAA",
"J. c #C0A7A4",
"K. c #C4B3AB",
"L. c #C9B4B1",
"P. c #CDBDBA",
"I. c #C7BAB7",
"U. c #DFC09C",
"Y. c #EBC499",
"T. c #F2C394",
"R. c #FCC895",
"E. c #F4C799",
"W. c #E4C7A8",
"Q. c #F1CDA7",
"!. c #F1D0A8",
"~. c #E5CAB1",
"^. c #E8CFB8",
"/. c #EAD1B9",
"(. c #F1D1B2",
"). c #F4D7BD",
"_. c #F0CFB0",
"`. c #BFBFC0",
"'. c #C2C2C2",
"]. c #CCCCCC",
"[. c #D2C5C2",
"{. c #D3CECA",
"}. c #D6CCCA",
"|. c #D9D0CE",
" X c gray84",
".X c #DBD5D4",
"XX c #DDDBDA",
"oX c #F6DCC4",
"OX c #E0DDDC",
"+X c #E8DED3",
"@X c #E9D7C5",
"#X c #E9E0D8",
"$X c #F2E5D9",
"%X c #F9E8D6",
"&X c #F0E0CE",
"*X c #E5E5E5",
"=X c #ECECEB",
"-X c #EEE8E3",
";X c #F6ECE4",
":X c #FAEFE5",
">X c #F9F2EC",
",X c #F8F1EA",
"<X c #F7F7F6",
"1X c #FEFEFE",
"2X c #FAF7F4",
/* pixels */
"                                              +  X X+                                               ",
"                                          $ q ].*X*X].q @                                           ",
"                                          2 t.*X*X*X*Xt.2                                           ",
"                                      5 @ *X*X*XH.K.*X*X*X# 5                                       ",
"                                    5 i.p.*XOXP.I I [.OX*Xp.i.5                                     ",
"                                    + b.=X*X|.G.3 3 J.|.*X*Xb.#                                     ",
"                                @ 6 OX*X*XH.y.$ # # $ I H.*X*XXX6 1                                 ",
"                                5 e *XOX Xs.L * * * * w s.XXXX*Xq 5                                 ",
"                            1 + XX*X*XI.z.# , m v v v , # z.P.*X*XXX+ $                             ",
"                          X q v.*XOXI.w 7 j k m T S m k j 7 w P.OX*Xv.q X                           ",
"                          @ i.*X*XXXz.8 $ v m m ) ) A v v @ 8 k.OX*X*Xi.#                           ",
"                      o 1 *X*X*XH.d.# j v m A _ _ _ ) A v M g @ d.H.*X*X*X2 o                       ",
"                      r y.*XOX|.I L - K { { 2.A.A.A.A.2.{ { K - L I |..X*Xy.r                       ",
"                    + v.*X*X[.J.$ % u l.v.v. X1X1X1X1X X`.`.l.g % $ G.}.*X*Xv.+                     ",
"                + 5  X*X*XH.I 1 d y u l.v.v.g.D D D V g.v.v.l.u g d $ I K.*X*X X5 +                 ",
"                5 e *X*XOXd.0 % y j z l.].x.g.+.M m +.g.x.].V.x i u % 0 d.OX*X*Xe 5                 ",
"            . # *X=X*XL.f.+ ; u i l _ oX1Xm 6.1XQ Q 1X6.m 1X%Xq.n u u ; + k.I.*X*X*X+ .             ",
"          2 e n.*XOXP.L 9 > d u A S _ oX2XM O.6.W.W.6.O.m 2X%Xq.>.$.u f > 9 L P.OX*Xn.e 2           ",
"          # p.*X*X.XJ.4 % y u u ) _ _ oX1Xm m a ;X;Xa m m 2X%Xq.q.q.p j i # 2 G.XX*X*Xp.+           ",
"      2 1 *X*X*XG.a.# s u u A _ _ _ _ oX2Xm 8.1XF Q 1X6.M 1XoX_ ,.q.q.@.u i s # a.H.*X*X*X1 1       ",
"      q q *XOX|.u.P = d i c A _ _ _ _ ).=X[ 5.^.V Y ^.5.[ ;X/._ <.,.q.$.V i g = P u.|.XX*Xq q       ",
"  5 + ].*X*X[.G.$ % u i k _ _ _ _ _ _ C.`.I.o.v a v a o.'.v.C._ _ _ q.q.q.l g i * $ z.[.*X*X].+ 5   ",
"5 t.].*XOXL.U 4 $ % i u g l l l p l p l.`.`.{.$X$X$X$X{.v.v.l.p l l b b n g i g * # 4 U L.*X*X].t.2 ",
"1 e XXOXOXf.0 + % = i i i i i i p p p j.c.c.{.2X>X,X>X{.c.I.h.p i k g i i p i i = @ # 0 k.OXOXXXt.1 ",
"  5 # d.k.# # # y p v v m m v v v v v v v v v v m m m m m m m v v v v v v v v v k g # # # k.d.# 5   ",
"      0 8   X # - ; < g i g u u i u u u g u u u y i u i u u u u u u i u g i g < - - # X   8 0       ",
"      1 O   . # # # + & t t t t t t t t t t & t t t t & t t t t t t t t t t : # # # # .   O 1       ",
"            . # g g g u u u u u u u u u u i u u z c v c c c c c c c c c v v c z z z # .             ",
"            . # u i l z l l Z B H B B H [ H [ [ %.%.%.%.%.%.+.} J J J F A W D D M z # .             ",
"            . # g z _ _ _ _ 6.`.v.v.`.*X1X1X1X1X1X1X1X1X1X1X=Xv.`.`.`.e.' q.q.q.W c # .             ",
"            . # y z _ _ _ _ 6.`.=X+X} &.1.&.M.].<X<X].N.>.9.;.*.+X=X`.e.` q.q.q.W z # .             ",
"            . # u z _ _ _ _ 6.`.2X$XM v v M { `.<X<Xv.1./ E R / %X2X`.7.' q.q.q.W c # .             ",
"            . # y u u u u u X.`.M O.1X1.m 1XW.a ;X:XE !.1XE 0.1X-./ v...c c c c m x + .             ",
"            . # y l m m m u .. XV Y W.N.M.W.8.v ;X:XE r.Q.S.T.Q.$.~ XX5.v #.#.#.M c # .             ",
"            . + g z _ _ ) u B.1XV m m /.2Xm m v ;X:XE E E 2XoXE E ^ 1XN.N q.q.q.W c # .             ",
"            . # u z _ _ _ E Y.1XV +.>X6.O.:XY.v ;X;XE T.:X$.r.,X=.~ 1XE.] q.q.q.W c # .             ",
"            . # u c _ _ _ _ T.1XY %.$X&.M $XU.M :X:X~ Y.:XR 9.:X;.-.1XR.` q.q.q.W z # .             ",
"            . + g l _ _ _ _ T.1Xv.x.m m m m [ v.<X<Xv.1.R R R E %X1X1XR.` q.q.q.W c # .             ",
"            . # u p v v v v N.1X*X#X~.~.^.~.@X*X1X1X*X@X(._._._.2X1X1XD.S ! ! ! M c # .             ",
"            . # u u i u g u B.1X1X1X1X2X1X1X1X1X1X1X1X1X1X1X1X1X1X1X1XN.v v m v c c # .             ",
"            . # y u u u u u M.1X'.K.M a m m { '.<X<X'.3./ / / ~ %X1X1XN.v v c m v z # .             ",
"            . # y y y y y y B.1Xl.m.3.Y a 3.5.h.<X2XB.7.9.E ( 9._.oX1XM.k p k l k k # .             ",
"            . # & t t t & & h.1XV +.1X1.m 1XW.m ;X:XE !.1XE 0.1X=.^ 1Xh.& & t t & & # .             ",
"            . # A S S S S S D.1XV M O.~.&X@.W a ;X:XE ^ -.%X(.-./ ^ 1XT._ >.>.>.>.>.# .             ",
"            . # ) _ _ _ _ _ T.1XV m V ^.:XY V m ;X:XE ~ ( ,X).^ / ^ 1XR.` q.q.q.q.w.# .             ",
"            . # E _ _ ) _ _ T.1XV %.1X1.a 1XW.m ;X:XR !.1Xa 1.1X$.^ 1XR.` q.q.q.q.w.# .             ",
"            . # l c c c c c N.1XU.Z.m.B i h.h...>X>X5.M.Z.v } N.Y.Q.1XD.T #.$.:.:.=.# .             ",
"            . # t t & t t t h.1X1X$Xt & t & G `.<X<X'.[ c c c z $X1X1XN.z z v R R R # .             ",
"            . # & & & t t t | '.h s t t t t t s -X;Xb c z z z z b C '...c z v T T T # .             ",
"            . # : & t t t t | v.s t t & t t t & -X;Xc c a c z l z b v...a l v T A M # .             "
};
