/* XPM */
static char *fe56b48c9cd14c18ace5e28797f6b1b6lRKlqN2FImJRDZex[] = {
/* columns rows colors chars-per-pixel */
"50 50 34 1 ",
"  c None",
". c #090B0C",
"X c #374145",
"o c #434F54",
"O c #63727B",
"+ c #62717C",
"@ c #61727D",
"# c #62727C",
"$ c #62737C",
"% c #62727D",
"& c #63727D",
"* c #B56F71",
"= c #A57C7F",
"- c #BE7474",
"; c #C07575",
": c #C97B7B",
"> c #D57E7E",
", c #D47F7F",
"< c #D57F7F",
"1 c #D67F7F",
"2 c #687B85",
"3 c #697C86",
"4 c #6A7D86",
"5 c #6B7E87",
"6 c #6C7E87",
"7 c #8F7D82",
"8 c #9B8288",
"9 c #D68080",
"0 c #E78989",
"q c #E88888",
"w c #E98888",
"e c #E88989",
"r c #EB8A8A",
"t c #FF9696",
/* pixels */
"                                                  ",
"                                                  ",
"                                                  ",
"                                                  ",
"                                                  ",
"                                                  ",
"                                                  ",
"                                                  ",
"                                                  ",
"                                                  ",
"                                                  ",
"                                                  ",
"                                                  ",
"                                                  ",
"                                                  ",
"           55   55                                ",
"           5555555  5555555555                    ",
"           55555555555555555555555                ",
"          2555555555555555555555555               ",
"         555555555555555555555555555              ",
"        25oo555555555555555555555555              ",
"       552..555555555555555555555555              ",
"      5555XX555555555555555555555555              ",
"     55555555555555555555555555555556             ",
"    -755555555555555555555555555555550t           ",
"   ;:=655555555555555555555555555555& 0rt         ",
"    *+555555555555555555555555555555    r0rqt     ",
"      &&555555555555555555555555555&        rt    ",
"        8855555555555555555655555&&          r0   ",
"        r9&+&8&&+++++&+++&&&8&&88                 ",
"       r>    r              r  >>                 ",
"     r<>     9             r>    r                ",
"     <      r              r     r                ",
"         r r<            >>>    >>                ",
"         >>>                                      ",
"                                                  ",
"                                                  ",
"                                                  ",
"                                                  ",
"                                                  ",
"                                                  ",
"                                                  ",
"                                                  ",
"                                                  ",
"                                                  ",
"                                                  ",
"                                                  ",
"                                                  ",
"                                                  ",
"                                                  "
};
