/* XPM */
static char *ab1bcd98c8454a39ed1d0165f7f27ffdtgQxCziVxiCJbWsB[] = {
/* columns rows colors chars-per-pixel */
"50 50 85 1 ",
"  c #DC8F16",
". c #D98719",
"X c #D58D1A",
"o c #D98E18",
"O c #DD9415",
"+ c #DD9A15",
"@ c #D6921A",
"# c #D89318",
"$ c #D69A1A",
"% c #D99C18",
"& c #E59D0F",
"* c #E99F0D",
"= c #E19513",
"- c #E29B11",
"; c #DDA214",
": c #DFAA14",
"> c #EEAC07",
", c #E6A30F",
"< c #EAA40B",
"1 c #E6AD0F",
"2 c #EBAA0B",
"3 c #F1AC07",
"4 c #F0AB08",
"5 c #EFB504",
"6 c #EFBA04",
"7 c #EEBD05",
"8 c #E7B00E",
"9 c #E7B20E",
"0 c #E7B50E",
"q c #E6B50F",
"w c #EAB008",
"e c #E8B20D",
"r c #EAB40C",
"t c #E8B60E",
"y c #E9B80D",
"u c #EBB80C",
"i c #F0B406",
"p c #F0BB02",
"a c #F0BA03",
"s c #F0BD03",
"d c #F0BF02",
"f c #E1A310",
"g c #E1A012",
"h c #E3A312",
"j c #E5A310",
"k c #E6A310",
"l c #E4A510",
"z c #E5A710",
"x c #E4A611",
"c c #E3AC11",
"v c #E5AC10",
"b c #EEC006",
"n c #EFC306",
"m c #EFC507",
"M c #EFC509",
"N c #F1C103",
"B c #F2C303",
"V c #F2C403",
"C c #F2C503",
"Z c #F1C505",
"A c #F2C504",
"S c #F1C605",
"D c #F2C803",
"F c #F3CA03",
"G c #F2C804",
"H c #F1CA05",
"J c #F3CB04",
"K c #F1CB07",
"L c #F3CE04",
"P c #F3CF04",
"I c #F4CF04",
"U c #F1CE08",
"Y c #F3D005",
"T c #F2D207",
"R c #F4D104",
"E c #F5D305",
"W c #F4D206",
"Q c #F5D505",
"! c #F5D605",
"~ c #F4D506",
"^ c #F5D706",
"/ c #F5D805",
"( c #F5DA05",
") c #F5DB05",
"_ c #F4D806",
/* pixels */
"QP&DRRQ2QQRI-JIPD<QQRI&NJRQ&AQRRfQQQI-DRQR,QQRI-DI",
"Np-5NdZ#NNdp=i55p#CC66O5pdN#pAFN-ZFNp=5NNZ#CNpp=55",
"&-&<,-&>f-<<i<<&k>f-<<><<,f4-&2*4<<---<<&->f-2<i<<",
"QPZPR7aCRIwCDIIIGQQG>5CRRGdZRC5iNZR)IZIPNaDRI5ZPGP",
"))RQR655CCwNMFAAZZPGwNZQTRZpNZ56sGU^)IIKa5iZFiNCGM",
"--o-kl-=kt1,O-<--=&,&,O-2-f=,efl=-2gfo-2ff=lt,kO-<",
")Q&RQQQ9)))Q-I))Q,ZYPP+RQ^Qt)))R;RQ)RkIQQQ0)))Q;RQ",
"FR&7ZGPv)Q)R#7ZGPfGPYQ+dZGI0))QROAZGR-dAFR0))QRO7Z",
"-&3OO--3+#oO<=O=-<Oo#O<OO--<O#O+<=O-&4O=-,<O###<+=",
"iANaaZQQPswZPRR~IGZpCQRPIRIBiiRIZNdpNdpiJR)IdiJRRJ",
"pNGCNR)QQN6RR))QQIZdGQR)))RANaQ)QQN7NAAAQ))RdpIR))",
"1wOf2tu--=--Ol2ew=-=-f ,2tu=---f#l22w=f2tu=-=-- ,>",
"QI-JRRR2RQRI&DGRI,Q)RR&NIRR,ZRRRfQRQD&IRRR<QQQR-GY",
"Np iNNCOCZdb=555pOCNdpOipNN#aZDZ-DINaOiNNB#NNNp=55",
"-O--*--2--<,>,&--2--<&2&&--<-&<&>&&-+----=2--<<wk-",
"RRFIRNwZRI>ZIDRRKQRI>iNRRI7CRD5idNIQRGIIZaDQIiZZGI",
"))MQP655CG2dZGRZAAFFiNRQRIZ7ZZiisGU)^M~Ua5iZZ5NZZn",
"=-O=l--=fvvkO=,-+==l--O=l--=fvk< -<--#=<+-Olvvl -<",
")Q#RQ))1)))R-R)QR,DIRI-I)))tR))RfRQ)Q%RQ))uQ))QkR)",
"IR@7ZGIv)))QO7CGIfAIRQ#ZZFI9)))P+NZIQ#NNZY0))^ROsN",
"=-<  =-<#XXX<O =-*oXX#<O =-*#X@X<  =-<  --k##XX<O ",
"iNNpiG)QId5FYPIIRZApZRRIIRFN65RIGNasNCidJQQAd5GQGR",
"adaZZR)!RNeJP))QQIZpZ)W)))QZZ5Q)QQNpdpZNQ))IdaGQ)Q",
"v2O+<1r=OO=Oo+21wOOO=+o+21e=OO-+Xf<v2o+<eeO=#=Oo-2",
"QI-JRRQ2QQQP&CIIR<RQQR&NIIR<ZRQIfQQQI-GQQR1IQRR-RR",
"ZdOiNNA+NN7d=i557#CCN6=ipdZ#aGGN-DRCp 5NNC#CNdp=55",
"O#==-OO<+&<&>&-+O2&=<-<---O<+-2-<--=O==-=O<--2-2--",
"RGIIRbiARPiCPDPPZRQI<iNIRFsZRD>isNRQIGPPNaCQJiZIGI",
"))QRRp55ZI2NZDPZCCYD5dZQPICdNCii7GR))QRG65iNI5NnGZ",
"OO #-+O +;;-O#-O+OO-+-#O,O+O+f+& Ok#OO#kO+O+l+-oO-",
")R<RQ))e)))Q-I))Y,CPPP-RQ))t)))QfRQ)QkRQ))t)))QkQQ",
"IE-NZFI1))QRONDGPlGPRR+NZPP9)Q)R+NGIR-NNIIr)))ROZZ",
"O=<O#=O<%XXX<  O=*@.X@<o O=&#@@X*  +=< O+=,#@.X<  ",
"iNdpiZQ)FdiZIIIIIJCpZQRYIZDN5iQIDNp5NdiiDEQGd5GPIF",
"pBdNsT))RBiFR))RQDCpGQQQ))QDNiQ)QRNpNbNdE))Id6PY))",
"*<==*<2-= ===-<,<-=O=+=-<<2-=O-==&**<=&<<>-====O-<",
"QR-IEEQ2QQQR-IRRP<P)QR&NIRQ<AQQR,YEEE-IRQR2QQQI-IR",
"AN-sBBZ-DCdN-iaiN#DDNN=isdZOdGDZ-DECN=6NZZ+JZNd-55",
" X.#O#.-++>=-#O X&+&>O&#=#X-++>O-OO#..#O#X-+->O-#=",
"RMNARNrZRI>DJZPPmRQP<iNDRIuFRFi5bCIRmCRPmiZRC5CIIF",
"Q)IQR655ZD2NDPCGDDPD57GQPRC7CZ557GT))PIP655DD5NDRZ",
"#%###XXO@##+@X#@#OX@#+#@###OX@@+@@O#+###X##X##+@.#",
")Q*R)Q)1Q))Q-R))R-NPDR-R)Q)qQ)Q~fR))P,R))QqQ))Q,R)",
"YQ&ZGRR1)))R+NCIR,PRYQ+CDRRt)))Y+ZGRPfCDPRu)))Y+ZG",
"##<X@##-c%$@-X@##-;#@$-X@##-:%%$-X###<X#@@&,%#@&X#",
"5ZCi6ZQQG7wCFJZIRZN6bRIZDDDN55RCANpiCNi5D))D75nPGG",
"6MDNNY~)QNiRQ))QQRDdZ)))))RIN5Q)QRNpNCCNE))R77R~))",
"f>++,l9;+@@#;;1l2+#@#%+;2le++@%%;;<-1$+<1e%+#@+%;2",
"QP-IRQR2QQQR,RRQI<RQQR-GRQR<FQRRfI~QR-IRQQ2RQRRfIR",
"ZnO6CCD+CDNN=5pp7+DCZN=5dCZ#7IIZ-IRGZOaZZZ#FAAN=5i"
};
